<svg width="230" height="230" viewBox="0 0 230 230" fill="none" xmlns="http://www.w3.org/2000/svg">
<path d="M0 17.3096V64.4666H230V17.3096H0ZM43.2064 61.0125L25.5262 20.7568H40.1902L57.8704 61.0131L43.2064 61.0125ZM90.36 61.0125L72.6798 20.7568H87.3443L105.025 61.0131L90.36 61.0125ZM135.504 61.0125L117.827 20.7568H132.492L150.169 61.0131L135.504 61.0125ZM182.658 61.0125L164.981 20.7568H179.645L197.322 61.0131L182.658 61.0125ZM0 132.899H230V85.7423H0V132.899ZM179.645 89.1924L197.322 129.449H182.657L164.98 89.1924H179.645ZM132.492 89.1924L150.169 129.449H135.504L117.827 89.1924H132.492ZM87.3443 89.1924L105.025 129.449H90.36L72.6798 89.1924H87.3443ZM40.1902 89.1924L57.8704 129.449H43.2064L25.5262 89.1924H40.1902ZM187.665 204.496H193.272V212.691H169.55V204.496H174.726V151.445H49.6454V204.496H55.0383V212.691H31.317V204.496H36.7099V151.445H31.317V143.251H193.056V151.445H187.665V204.496Z" fill="white"/>
</svg>
