<svg width="71" height="71" viewBox="0 0 71 71" fill="none" xmlns="http://www.w3.org/2000/svg">
<path d="M35.4375 70.875C55.0091 70.875 70.875 55.0091 70.875 35.4375C70.875 15.8659 55.0091 0 35.4375 0C15.8659 0 0 15.8659 0 35.4375C0 55.0091 15.8659 70.875 35.4375 70.875Z" fill="#301751"/>
<path d="M40.5 12.6562H35.4375V17.7188H40.5V12.6562Z" fill="white"/>
<path d="M20.25 20.25H25.3125V25.3125H20.25V20.25Z" fill="white"/>
<path d="M10.1289 37.8204C10.5615 45.1643 14.9351 55.6875 30.375 55.6875C47.5875 55.6875 55.2655 43.0312 56.9531 36.7031C59.0624 36.7031 63.7875 35.4375 65.8125 30.375C64.5469 29.1094 59.4844 29.1094 56.9531 30.375C56.9531 28.35 55.6875 24.0469 53.1563 22.7812C51.4687 24.4688 48.8531 28.8562 51.8906 32.9062C50.625 35.4375 47.2501 35.4375 45.5625 35.4375H12.5117C11.1715 35.4375 10.0501 36.4824 10.1289 37.8204Z" fill="white"/>
<path d="M17.7188 27.8438H12.6562V32.9062H17.7188V27.8438Z" fill="white"/>
<path d="M20.25 27.8438H25.3125V32.9062H20.25V27.8438Z" fill="white"/>
<path d="M32.9062 27.8438H27.8438V32.9062H32.9062V27.8438Z" fill="white"/>
<path d="M35.4375 27.8438H40.5V32.9062H35.4375V27.8438Z" fill="white"/>
<path d="M48.0938 27.8438H43.0312V32.9062H48.0938V27.8438Z" fill="white"/>
<path d="M32.9062 20.25H27.8438V25.3125H32.9062V20.25Z" fill="white"/>
<path d="M35.4375 20.25H40.5V25.3125H35.4375V20.25Z" fill="white"/>
</svg>
