<svg width="81" height="81" viewBox="0 0 81 81" fill="none" xmlns="http://www.w3.org/2000/svg">
<g clip-path="url(#clip0_444_22)">
<path fill-rule="evenodd" clip-rule="evenodd" d="M40.5 0C62.8682 0 81 18.5892 81 41.5244C81 59.8668 69.4089 75.427 53.3264 80.9229C51.273 81.3319 50.544 80.0352 50.544 78.9295C50.544 77.5606 50.5926 73.0896 50.5926 67.533C50.5926 63.6612 49.2966 61.1342 47.8427 59.8463C56.862 58.8176 66.339 55.3059 66.339 39.357C66.339 34.821 64.7676 31.1195 62.1675 28.2116C62.5887 27.1626 63.9778 22.939 61.7706 17.2204C61.7706 17.2204 58.3767 16.1078 50.6452 21.4781C47.4093 20.5587 43.9425 20.0961 40.5 20.0799C37.0575 20.0961 33.5948 20.5587 30.3629 21.4781C22.6233 16.1078 19.2213 17.2204 19.2213 17.2204C17.0222 22.939 18.4113 27.1626 18.8285 28.2116C16.2405 31.1195 14.657 34.821 14.657 39.357C14.657 55.2654 24.1137 58.8309 33.1088 59.8799C31.9505 60.9167 30.9015 62.7457 30.537 65.4308C28.2285 66.4919 22.3641 68.3284 18.7515 61.982C18.7515 61.982 16.6091 57.9922 12.5429 57.7006C12.5429 57.7006 8.5941 57.6482 12.2674 60.224C12.2674 60.224 14.9202 61.4997 16.763 66.299C16.763 66.299 19.1403 73.7103 30.4074 71.1993C30.4277 74.6702 30.4641 77.9413 30.4641 78.9295C30.4641 80.0271 29.7189 81.3116 27.6979 80.9268C11.6032 75.4391 0 59.8709 0 41.5244C0 18.5892 18.1359 0 40.5 0Z" fill="#301751"/>
</g>
<defs>
<clipPath id="clip0_444_22">
<rect width="81" height="81" fill="white"/>
</clipPath>
</defs>
</svg>
