<svg width="73" height="73" viewBox="0 0 73 73" fill="none" xmlns="http://www.w3.org/2000/svg">
<path d="M19.4062 43.0312L27.1448 35.2927C28.4628 33.9748 30.5998 33.9748 31.9177 35.2927L37.2698 40.6448C38.5877 41.9627 40.7248 41.9627 42.0427 40.6448L53.1562 29.5312M53.1562 29.5312V37.9688M53.1562 29.5312H44.7188" stroke="#C499FF" stroke-width="5.0625" stroke-linecap="round" stroke-linejoin="round"/>
<path d="M70.0312 36.2812C70.0312 52.191 70.0312 60.1462 65.0886 65.0886C60.1462 70.0312 52.191 70.0312 36.2812 70.0312C20.3713 70.0312 12.4164 70.0312 7.47384 65.0886C2.53125 60.1462 2.53125 52.191 2.53125 36.2812C2.53125 20.3713 2.53125 12.4164 7.47384 7.47384C12.4164 2.53125 20.3713 2.53125 36.2812 2.53125C52.191 2.53125 60.1462 2.53125 65.0886 7.47384C68.3751 10.7602 69.4764 15.3784 69.8453 22.7812" stroke="#C499FF" stroke-width="5.0625" stroke-linecap="round"/>
</svg>
