<svg width="68" height="48" viewBox="0 0 68 48" fill="none" xmlns="http://www.w3.org/2000/svg">
<path d="M64.125 47.25H3.375C2.47989 47.25 1.62145 46.8944 0.988514 46.2615C0.355579 45.6286 0 44.7701 0 43.875C0 42.9799 0.355579 42.1214 0.988514 41.4885C1.62145 40.8556 2.47989 40.5 3.375 40.5H64.125C65.0201 40.5 65.8786 40.8556 66.5115 41.4885C67.1444 42.1214 67.5 42.9799 67.5 43.875C67.5 44.7701 67.1444 45.6286 66.5115 46.2615C65.8786 46.8944 65.0201 47.25 64.125 47.25Z" fill="white"/>
<path d="M64.125 27H3.375C2.47989 27 1.62145 26.6444 0.988514 26.0115C0.355579 25.3785 0 24.5201 0 23.625C0 22.7299 0.355579 21.8715 0.988514 21.2385C1.62145 20.6056 2.47989 20.25 3.375 20.25H64.125C65.0201 20.25 65.8786 20.6056 66.5115 21.2385C67.1444 21.8715 67.5 22.7299 67.5 23.625C67.5 24.5201 67.1444 25.3785 66.5115 26.0115C65.8786 26.6444 65.0201 27 64.125 27Z" fill="white"/>
<path d="M64.125 6.75H3.375C2.47989 6.75 1.62145 6.39442 0.988514 5.76148C0.355579 5.12855 0 4.27011 0 3.375C0 2.47989 0.355579 1.62145 0.988514 0.988515C1.62145 0.35558 2.47989 0 3.375 0H64.125C65.0201 0 65.8786 0.35558 66.5115 0.988515C67.1444 1.62145 67.5 2.47989 67.5 3.375C67.5 4.27011 67.1444 5.12855 66.5115 5.76148C65.8786 6.39442 65.0201 6.75 64.125 6.75Z" fill="white"/>
</svg>
