<svg width="72" height="53" viewBox="0 0 72 53" fill="none" xmlns="http://www.w3.org/2000/svg">
<path d="M60.4002 0H10.5421C9.23254 0 8.17116 1.06437 8.17116 2.37092C8.17116 3.67747 9.23254 4.74184 10.5421 4.74184H60.4002C63.7249 4.74184 66.4336 7.44762 66.4336 10.7813V41.4179C66.4336 44.7455 63.7249 47.4513 60.4002 47.4513H10.7783C7.4536 47.4513 4.74483 44.7455 4.74483 41.4179V10.5451C4.74483 9.23254 3.68046 8.17116 2.36793 8.17116C1.06138 8.17116 0 9.23254 0 10.5451V41.4179C0 47.3646 4.83453 52.1961 10.7783 52.1961H60.4002C66.3439 52.1961 71.1785 47.3646 71.1785 41.4179V10.7813C71.1785 4.83154 66.3439 0 60.4002 0ZM52.4323 33.6832C50.9912 33.6832 49.8252 32.5142 49.8252 31.0821C49.8252 29.7666 48.7608 28.7052 47.4513 28.7052C46.1418 28.7052 45.0804 29.7666 45.0804 31.0821C45.0804 34.2961 47.1733 37.0109 50.0584 38.0035V39.3459C50.0584 40.6555 51.1228 41.7228 52.4323 41.7228C53.7449 41.7228 54.8033 40.6555 54.8033 39.3459V38.0035C57.6914 37.0109 59.7813 34.2961 59.7813 31.0821C59.7813 27.0219 56.4865 23.7242 52.4323 23.7242C50.9912 23.7242 49.8252 22.5551 49.8252 21.12C49.8252 19.6819 50.9912 18.5129 52.4323 18.5129C53.8675 18.5129 55.0365 19.6819 55.0365 21.12C55.0365 22.4296 56.0978 23.4939 57.4104 23.4939C58.7199 23.4939 59.7813 22.4296 59.7813 21.12C59.7813 17.9 57.6914 15.1912 54.8033 14.1956V12.8472C54.8033 11.5377 53.7449 10.4733 52.4323 10.4733C51.1228 10.4733 50.0584 11.5377 50.0584 12.8472V14.1956C47.1733 15.1912 45.0804 17.9 45.0804 21.12C45.0804 25.1742 48.3782 28.469 52.4323 28.469C53.8675 28.469 55.0365 29.638 55.0365 31.0821C55.0365 32.5142 53.8675 33.6832 52.4323 33.6832ZM11.8606 40.3356H35.5877C36.8973 40.3356 37.9587 39.2682 37.9587 37.9617C37.9587 36.6551 36.8973 35.5907 35.5877 35.5907H11.8606C10.551 35.5907 9.48966 36.6551 9.48966 37.9617C9.48966 39.2682 10.551 40.3356 11.8606 40.3356ZM11.8606 16.6084H35.5877C36.8973 16.6084 37.9587 15.544 37.9587 14.2375C37.9587 12.925 36.8973 11.8636 35.5877 11.8636H11.8606C10.551 11.8636 9.48966 12.925 9.48966 14.2375C9.48966 15.544 10.551 16.6084 11.8606 16.6084ZM11.8606 28.469H35.5877C36.8973 28.469 37.9587 27.4076 37.9587 26.0951C37.9587 24.7855 36.8973 23.7242 35.5877 23.7242H11.8606C10.551 23.7242 9.48966 24.7855 9.48966 26.0951C9.48966 27.4076 10.551 28.469 11.8606 28.469Z" fill="black"/>
</svg>
