<svg width="81" height="81" viewBox="0 0 81 81" fill="none" xmlns="http://www.w3.org/2000/svg">
<path d="M19.1126 28.8027H34.3899V30.0169H20.513V39.1559H33.5624V40.3701H20.513V50.4038H34.5491V51.6181H19.1126V28.8027ZM35.7585 28.8027H37.3817L44.5748 38.8363L51.927 28.8027L61.9273 16.0576L45.4978 39.8908L53.964 51.6181H52.2772L44.5748 40.9453L36.8407 51.6181H35.1856L43.7155 39.8908L35.7585 28.8027ZM54.5688 30.0169V28.8027H71.9786V30.0169H63.958V51.6181H62.5575V30.0169H54.5688ZM0 28.8027H1.75053L25.8893 64.924L15.9139 51.6181L1.46408 30.5282L1.40042 51.6181H0V28.8027ZM71.8375 50.0373C71.5513 50.0373 71.3368 49.8157 71.3368 49.5292C71.3368 49.2427 71.5513 49.021 71.8375 49.021C72.127 49.021 72.3382 49.2427 72.3382 49.5292C72.3382 49.8157 72.127 50.0373 71.8375 50.0373ZM73.2135 48.7004H73.9629C73.9731 49.1063 74.2695 49.3791 74.7054 49.3791C75.1925 49.3791 75.4684 49.0858 75.4684 48.5367V45.0579H76.2314V48.5401C76.2314 49.5292 75.6592 50.0987 74.7122 50.0987C73.8232 50.0987 73.2135 49.5462 73.2135 48.7004ZM77.2294 48.6561H77.9856C78.0503 49.1233 78.5067 49.42 79.1641 49.42C79.7772 49.42 80.2268 49.1028 80.2268 48.6663C80.2268 48.2911 79.9407 48.066 79.2901 47.9126L78.6566 47.7591C77.7676 47.551 77.3622 47.1213 77.3622 46.3983C77.3622 45.5217 78.0775 44.9385 79.1505 44.9385C80.1485 44.9385 80.8774 45.5217 80.9217 46.3505H80.1791C80.1076 45.8969 79.7125 45.6138 79.1402 45.6138C78.5374 45.6138 78.1354 45.9037 78.1354 46.3471C78.1354 46.6984 78.3943 46.8996 79.0347 47.0497L79.5762 47.1827C80.5844 47.418 81 47.8273 81 48.5674C81 49.5087 80.2711 50.0987 79.1062 50.0987C78.0162 50.0987 77.2839 49.536 77.2294 48.6561Z" fill="#301751"/>
</svg>
