<svg width="100" height="100" viewBox="0 0 100 100" fill="none" xmlns="http://www.w3.org/2000/svg">
<path d="M23.5381 33.635C23.5381 37.0014 24.2012 40.3349 25.4894 43.4451C26.7777 46.5553 28.666 49.3813 31.0464 51.7617C33.4268 54.1421 36.2528 56.0304 39.363 57.3187C42.4732 58.6069 45.8067 59.27 49.1731 59.27C52.5395 59.27 55.873 58.6069 58.9832 57.3187C62.0934 56.0304 64.9193 54.1421 67.2998 51.7617C69.6802 49.3813 71.5685 46.5553 72.8567 43.4451C74.145 40.3349 74.8081 37.0014 74.8081 33.635C74.8081 26.8362 72.1073 20.3158 67.2998 15.5083C62.4923 10.7008 55.9719 8 49.1731 8C42.3743 8 35.8539 10.7008 31.0464 15.5083C26.2389 20.3158 23.5381 26.8362 23.5381 33.635Z" fill="white"/>
<path d="M37.899 86.5581V78.788H37.959L43.272 86.5581H44.969V75.93H43.213V83.596H43.153L37.9 75.93H36.158V86.5581H37.9H37.899ZM47.886 88.0461L53.051 74.3521H51.593L46.413 88.0461H47.886ZM55.314 86.5581L56.281 83.893H60.731L61.699 86.5581H63.559L59.497 75.93H57.517L53.454 86.5581H55.314ZM60.211 82.464H56.802L58.484 77.8061H58.544L60.211 82.464Z" fill="white"/>
<path d="M27.288 70.8462V70.8422L26.949 70.8462C16.048 70.8462 7.19 62.1762 7.003 51.4102L7 51.0652C7 40.1402 15.932 31.2832 26.95 31.2832C37 31.2832 45.314 38.6532 46.697 48.2392H47.134V48.1062C47.134 35.6722 57.197 25.5692 69.687 25.3682L70.067 25.3652C82.732 25.3652 93 35.5472 93 48.1052C93 60.6652 82.732 70.8462 70.067 70.8462L70.321 70.8432V70.8462H27.289H27.288Z" fill="white"/>
</svg>
