<svg width="25" height="25" viewBox="0 0 25 25" fill="none" xmlns="http://www.w3.org/2000/svg">
<path d="M8.60085 16.2204C8.29659 16.2204 8.05186 15.9498 8.05186 15.6161C8.05186 15.2824 8.29879 15.0118 8.60085 15.0118H11.606C11.9102 15.0118 12.155 15.2824 12.155 15.6161C12.155 15.9498 11.908 16.2204 11.606 16.2204H8.60085ZM18.8861 13.7157C20.575 13.7157 22.1029 14.3465 23.2097 15.3679C24.3165 16.3893 25 17.7993 25 19.3579C25 20.9164 24.3165 22.3264 23.2097 23.3478C22.1029 24.3693 20.575 25 18.8861 25C17.1973 25 15.6694 24.3693 14.5626 23.3478C13.4558 22.3264 12.7723 20.9164 12.7723 19.3579C12.7723 17.7993 13.4558 16.3893 14.5626 15.3679C15.6694 14.3465 17.1973 13.7157 18.8861 13.7157ZM18.4187 16.7189C18.4187 16.4401 18.6635 16.2143 18.9655 16.2143C19.2676 16.2143 19.5123 16.4401 19.5123 16.7189V19.3477L21.6421 20.5115C21.9023 20.6519 21.9883 20.9612 21.8339 21.2013C21.6818 21.4414 21.3467 21.5207 21.0865 21.3783L18.7164 20.0822C18.54 19.9988 18.4187 19.8299 18.4187 19.6325V16.7189ZM22.438 16.082C21.5297 15.2438 20.273 14.7249 18.8861 14.7249C17.4993 14.7249 16.2426 15.2438 15.3342 16.082C14.4259 16.9203 13.8637 18.0801 13.8637 19.3599C13.8637 20.6397 14.4259 21.7995 15.3342 22.6377C16.2426 23.476 17.4993 23.9949 18.8861 23.9949C20.273 23.9949 21.5297 23.476 22.438 22.6377C23.3464 21.7995 23.9086 20.6397 23.9086 19.3599C23.9086 18.0801 23.3464 16.9203 22.438 16.082ZM9.72308 22.3692C10.0847 22.3692 10.3779 22.6398 10.3779 22.9735C10.3779 23.3072 10.0847 23.5778 9.72308 23.5778H1.52571C1.1068 23.5778 0.725373 23.4191 0.44757 23.1647C0.171973 22.9104 0 22.5584 0 22.1718V1.40799C0 1.01937 0.171973 0.669407 0.44757 0.413038C0.723168 0.158704 1.10459 0 1.52571 0H20.2443C20.6632 0 21.0446 0.158704 21.3224 0.413038C21.598 0.667372 21.77 1.01937 21.77 1.40799V11.0279C21.77 11.3616 21.4768 11.6322 21.1152 11.6322C20.7536 11.6322 20.4604 11.3616 20.4604 11.0279V1.40799C20.4604 1.35509 20.4361 1.30626 20.3964 1.26963C20.3567 1.23301 20.3038 1.21063 20.2465 1.21063H1.52571C1.46838 1.21063 1.41326 1.23301 1.37578 1.26963C1.33389 1.30422 1.30964 1.35306 1.30964 1.40799V22.1718C1.30964 22.2247 1.33389 22.2756 1.37358 22.3102C1.41326 22.3468 1.46618 22.3692 1.5235 22.3692H9.72308ZM4.21554 14.7493H5.8581C5.97716 14.7493 6.07417 14.8389 6.07417 14.9487V16.4646C6.07417 16.5744 5.97716 16.664 5.8581 16.664H4.21554C4.09648 16.664 3.99947 16.5744 3.99947 16.4646V14.9487C4.00168 14.8368 4.09869 14.7493 4.21554 14.7493ZM4.21554 4.37251H5.8581C5.97716 4.37251 6.07417 4.46203 6.07417 4.57191V6.08773C6.07417 6.19761 5.97716 6.28713 5.8581 6.28713H4.21554C4.09648 6.28713 3.99947 6.19761 3.99947 6.08773V4.57191C4.00168 4.46203 4.09869 4.37251 4.21554 4.37251ZM8.60085 5.84357C8.29659 5.84357 8.05186 5.57296 8.05186 5.23928C8.05186 4.90559 8.29879 4.63498 8.60085 4.63498H16.419C16.7233 4.63498 16.968 4.90559 16.968 5.23928C16.968 5.57296 16.7211 5.84357 16.419 5.84357H8.60085ZM4.888 11.4226C4.74689 11.5264 4.54405 11.5 4.40074 11.3718C4.38531 11.3616 4.36987 11.3494 4.35444 11.3352L3.66655 10.68C3.52324 10.5416 3.55631 10.3117 3.74151 10.1652C3.92671 10.0187 4.19349 10.0106 4.33901 10.1489L4.71382 10.505L5.91983 9.60975C6.08078 9.4897 6.32772 9.54261 6.46882 9.72573C6.60993 9.90885 6.59229 10.155 6.43134 10.2751L4.888 11.4226ZM8.23926 10.916C7.935 10.916 7.69027 10.6454 7.69027 10.3117C7.69027 9.97803 7.93721 9.70741 8.23926 9.70741H16.0574C16.3617 9.70741 16.6064 9.97803 16.6064 10.3117C16.6064 10.6454 16.3595 10.916 16.0574 10.916H8.23926Z" fill="white"/>
</svg>
