<svg width="81" height="81" viewBox="0 0 81 81" fill="none" xmlns="http://www.w3.org/2000/svg">
<g clip-path="url(#clip0_445_41)">
<path d="M81.9826 48.3944C81.9479 49.1668 80.9267 50.0318 78.8265 51.1282C74.5017 53.3788 52.1081 62.6041 47.3435 65.0746C45.6396 66.2867 43.5134 67.0129 41.2223 67.0129C39.3679 67.0129 37.6264 66.5384 36.1077 65.7053L36.1626 65.7342C32.3904 63.9348 8.56768 54.3074 4.27468 52.2564C2.13108 51.2439 1.03758 50.3673 0.999969 49.5573V57.7441C0.999969 58.5599 2.12818 59.4307 4.27468 60.4432C8.56768 62.4942 32.399 72.1216 36.1626 73.921C37.6206 74.7223 39.3593 75.1938 41.2078 75.1938C43.5076 75.1938 45.6368 74.4648 47.3754 73.2238L47.3435 73.247C52.1081 70.762 74.5017 61.5569 78.8265 59.3005C81.0251 58.1549 81.9971 57.2755 81.9971 56.4597C81.9971 55.6439 81.9971 48.3857 81.9971 48.3857L81.9826 48.3944Z" fill="#301751"/>
<path d="M81.9768 35.0469C81.9392 35.8193 80.9209 36.6813 78.8236 37.7777C74.4988 40.0284 52.1052 49.2537 47.3406 51.7242C45.6339 52.9421 43.5047 53.6682 41.2049 53.6682C39.3564 53.6682 37.6177 53.1967 36.1048 52.3693L36.1598 52.3982C32.3875 50.5844 8.56478 40.957 4.27178 38.9059C2.12818 37.8934 1.03468 37.0169 0.99707 36.2069V44.3937C0.99707 45.2095 2.12528 46.0802 4.27178 47.0927C8.56478 49.1438 32.3932 58.7712 36.1598 60.5706C37.6235 61.3748 39.365 61.8492 41.2194 61.8492C43.5134 61.8492 45.6367 61.1231 47.3754 59.8907L47.3435 59.9139C52.1081 57.4289 74.5017 48.2181 78.8265 45.9674C81.0251 44.8189 81.9971 43.9424 81.9971 43.1208C81.9971 42.2993 81.9971 35.0469 81.9971 35.0469H81.9768Z" fill="#301751"/>
<path d="M81.9768 21.2017C82.0173 20.3772 80.9412 19.6569 78.7744 18.8585C74.5769 17.3166 52.299 8.45575 48.0407 6.89361C46.5133 6.19354 44.7313 5.78564 42.8509 5.78564C40.7276 5.78564 38.7257 6.30636 36.964 7.22629L37.0334 7.19157C32.0259 8.99093 8.32468 18.2857 4.10979 19.9346C2.00089 20.7649 0.968145 21.5315 1.00575 22.3473V30.534C1.00575 31.3498 2.13397 32.2206 4.28047 33.2331C8.57347 35.2841 32.4019 44.9144 36.1684 46.7138C37.6264 47.5151 39.365 47.9837 41.2136 47.9837C43.5134 47.9837 45.6425 47.2547 47.384 46.0166L47.3522 46.0397C52.1168 43.5548 74.5104 34.3439 78.8352 32.0933C81.0338 30.9448 82.0058 30.0683 82.0058 29.2467C82.0058 28.4251 82.0058 21.1728 82.0058 21.1728H81.9797L81.9768 21.2017ZM30.0009 28.9661L48.7697 26.0848L43.0997 34.3989L30.0009 28.9661ZM71.5163 21.4794L59.2129 26.3394L48.1188 21.9336L60.4019 17.0765L71.5047 21.4649L71.5163 21.4794ZM38.9282 13.4228L37.1115 10.0758L42.7757 12.2888L48.1159 10.5415L46.6724 14.0014L52.1139 16.0264L45.0958 16.7554L43.525 20.5479L40.9821 16.333L32.8821 15.604L38.9311 13.4228H38.9282ZM24.9644 18.1439C30.5071 18.1439 34.9939 19.8854 34.9939 22.0319C34.9939 24.1784 30.484 25.9199 24.9644 25.9199C19.4448 25.9199 14.9146 24.1755 14.9146 22.0319C14.9146 19.8883 19.4072 18.1439 24.9644 18.1439Z" fill="#301751"/>
</g>
<defs>
<clipPath id="clip0_445_41">
<rect width="81" height="81" fill="white"/>
</clipPath>
</defs>
</svg>
