<svg width="81" height="81" viewBox="0 0 81 81" fill="none" xmlns="http://www.w3.org/2000/svg">
<path d="M65.2126 31.1114C65.4632 30.8633 65.8075 30.7089 66.1872 30.7089C66.9491 30.7089 67.5667 31.3265 67.5667 32.0884C67.5667 32.8503 66.9491 33.468 66.1872 33.468C65.4252 33.468 64.8076 32.8503 64.8076 32.0884C64.8076 31.7087 64.962 31.3645 65.2101 31.1139L65.2126 31.1114ZM38.8345 9.88683C39.2471 9.45399 39.8267 9.18314 40.4722 9.18314C41.7201 9.18314 42.7301 10.1931 42.7301 11.441C42.7301 12.6889 41.7201 13.6989 40.4722 13.6989C39.4268 13.6989 38.5484 12.9901 38.2902 12.0257L38.2877 12.0106C38.2422 11.8384 38.2143 11.6435 38.2143 11.441C38.2143 10.8386 38.4497 10.2918 38.8345 9.88683ZM68.2552 40.2492C68.2552 40.9402 68.2299 41.6287 68.1792 42.3096H65.3316C65.0481 42.3096 64.9317 42.4944 64.9317 42.7779V44.084C64.9317 47.162 63.1952 47.8303 61.6739 47.9999C60.2261 48.1644 58.6212 47.3949 58.4238 46.509C58.1985 43.3069 56.4672 40.5529 53.9384 38.9304L53.9005 38.9076C56.9532 37.4066 59.1199 34.5134 59.5857 31.0785L59.5907 31.0253C59.4667 27.9144 57.7682 25.2287 55.2749 23.7252L55.2344 23.7024C53.5461 22.5937 51.5084 21.8824 49.3138 21.7457L49.2784 21.7432H19.84C23.8115 17.3161 29.1499 14.1824 35.1869 13.0104L35.3616 12.9826L38.8319 16.6225C39.2066 17.0148 39.7331 17.2604 40.3178 17.2604C40.8696 17.2604 41.3682 17.0427 41.7378 16.6883L45.6182 12.975C53.8017 14.5494 60.5855 19.5385 64.5393 26.3678L64.6102 26.502L61.9524 32.5061C61.841 32.7516 61.7777 33.0376 61.7777 33.3389C61.7777 34.1716 62.2713 34.8905 62.9851 35.217L62.9978 35.2221L68.116 37.4952C68.2046 38.4039 68.2501 39.3202 68.2501 40.2517L68.2552 40.2492ZM34.2276 35.5486V30.3267H43.5907C44.0742 30.3267 47.0053 30.8861 47.0053 33.0781C47.0053 34.8981 44.7576 35.5512 42.9098 35.5512L34.2276 35.5486ZM12.9246 37.2674L17.7795 35.1082C18.506 34.7791 19.0021 34.0628 19.0021 33.23C19.0021 32.9263 18.9363 32.6402 18.8199 32.382L18.8249 32.3947L17.8251 30.1343H21.7586V47.8556H13.8257C13.1524 45.58 12.7677 42.9677 12.7677 40.2618C12.7677 39.2063 12.8259 38.1634 12.9423 37.1383L12.9297 37.2648L12.9246 37.2674ZM15.5672 31C15.5672 30.2533 14.9622 29.6483 14.2155 29.6483C13.4688 29.6483 12.8638 30.2533 12.8638 31C12.8638 31.7467 13.4688 32.3517 14.2155 32.3517C14.9622 32.3517 15.5672 31.7467 15.5672 31ZM24.1684 65.8806C24.014 65.9186 23.8393 65.9388 23.6571 65.9388C22.4092 65.9388 21.3992 64.9289 21.3992 63.681C21.3992 62.4331 22.4092 61.4231 23.6571 61.4231C24.905 61.4231 25.915 62.4331 25.915 63.681C25.915 63.924 25.877 64.1594 25.8061 64.3796L25.8112 64.3644C25.5656 65.1238 24.9506 65.6958 24.1836 65.8806H24.1684ZM55.5281 58.6691C55.399 58.6387 55.2496 58.6235 55.0952 58.6235C54.1131 58.6235 53.2904 59.3146 53.0905 60.2385L53.0879 60.2511L51.9565 65.5288C48.5924 67.0855 44.6563 67.9942 40.5076 67.9942C36.2678 67.9942 32.2482 67.045 28.6512 65.3465L28.8208 65.4174L27.6894 60.1397C27.4869 59.2057 26.6667 58.5147 25.6846 58.5147C25.5302 58.5147 25.3809 58.5324 25.2366 58.5628L25.2492 58.5602L20.5892 59.5601C19.7488 58.6969 18.9591 57.7705 18.2326 56.7934L18.1795 56.72H40.8519C41.1075 56.72 41.2797 56.6745 41.2797 56.4416V48.4201C41.2797 48.1872 41.1101 48.1416 40.8519 48.1416H34.22V43.0563H41.3936C43.6236 43.0791 45.4613 44.7168 45.8005 46.8532L45.803 46.8785C46.089 47.9948 46.7117 51.6373 47.142 52.8016C47.5673 54.1078 49.3037 56.7175 51.1541 56.7175H62.451C62.5978 56.715 62.7396 56.6998 62.8763 56.6745L62.8611 56.677C62.0359 57.7907 61.1955 58.7729 60.2893 59.6942L60.2919 59.6917L55.5281 58.6691ZM56.6114 65.9895C59.4717 65.9895 61.7904 63.6683 61.7904 60.808C61.7904 57.9477 59.4717 55.6265 56.6089 55.6265C53.7461 55.6265 51.4274 57.9451 51.4274 60.808C51.4274 63.6683 53.7461 65.9869 56.6064 65.9895H56.6114ZM77.9347 39.5607L74.7478 37.5888C74.7208 37.2783 74.6913 36.9687 74.6592 36.6599L77.3981 34.1084C77.6107 33.9084 77.7423 33.6224 77.7423 33.3085C77.7423 32.8427 77.4512 32.4428 77.0412 32.2808L77.0336 32.2783L73.5328 30.9696C73.4468 30.6675 73.3548 30.3663 73.2569 30.066L75.4414 27.0335C75.5705 26.8563 75.649 26.6336 75.649 26.3931C75.649 25.8489 75.2541 25.3983 74.7352 25.3123H74.7276L71.037 24.7124C70.8936 24.4339 70.7451 24.1572 70.5915 23.8821L72.1406 20.4776C72.2039 20.3434 72.2394 20.189 72.2394 20.022C72.2394 19.7941 72.171 19.5841 72.0495 19.4094L72.0521 19.4119C71.8521 19.1158 71.5154 18.9234 71.1357 18.9234C71.1231 18.9234 71.1104 18.9234 71.0978 18.9234H71.1003L67.3541 19.055C67.1617 18.812 66.9642 18.5732 66.7617 18.3387L67.6224 14.6911C67.6401 14.6152 67.6502 14.5291 67.6502 14.4406C67.6502 13.8331 67.1591 13.342 66.5517 13.342C66.4631 13.342 66.377 13.3521 66.2935 13.3724L66.3011 13.3698L62.6535 14.2305C62.4156 14.0296 62.1751 13.8322 61.9321 13.6381L62.0637 9.89189C62.0637 9.87671 62.0637 9.85899 62.0637 9.83874C62.0637 9.2363 61.5752 8.7503 60.9753 8.7503C60.8082 8.7503 60.6488 8.78827 60.507 8.85661L60.5146 8.85408L57.1101 10.4083C56.8342 10.2589 56.5583 10.1071 56.2798 9.96277L55.6774 6.26968C55.5863 5.74571 55.1332 5.35336 54.5915 5.35336C54.3536 5.35336 54.1308 5.4293 53.9511 5.55839L53.9536 5.55586L50.9186 7.74033C50.62 7.64415 50.3187 7.55386 50.015 7.46949L48.7063 3.96877C48.5443 3.55111 48.1444 3.26002 47.6761 3.26002C47.3622 3.26002 47.0787 3.39164 46.8762 3.60427L44.3247 6.34561C44.0159 6.31018 43.7063 6.28064 43.3958 6.25702L41.4239 3.07018C41.2265 2.7563 40.8848 2.55127 40.4924 2.55127C40.1001 2.55127 39.7558 2.7563 39.5635 3.06764L39.5609 3.07271L37.5891 6.25955C37.2786 6.28655 36.9689 6.31608 36.6601 6.34814L34.1036 3.6068C33.9036 3.39164 33.6176 3.25749 33.3012 3.25749C32.8329 3.25749 32.4329 3.55111 32.276 3.96371L32.2735 3.9713L30.9648 7.47202C30.6611 7.55808 30.3624 7.65174 30.0612 7.74286L27.0287 5.55839C26.8515 5.43183 26.6313 5.35589 26.3908 5.35589C25.8466 5.35589 25.3961 5.74824 25.3049 6.26714V6.27474L24.7025 9.96783C24.4241 10.1113 24.1473 10.2598 23.8722 10.4133L20.4677 8.85914C20.3336 8.79586 20.1766 8.76043 20.0121 8.76043C19.4071 8.76043 18.9161 9.25149 18.9161 9.85646C18.9161 9.87164 18.9161 9.88683 18.9161 9.89949L19.0477 13.6432C18.8047 13.8356 18.5642 14.033 18.3263 14.2355L14.6787 13.3724C14.6028 13.3546 14.5167 13.3445 14.4282 13.3445C13.8207 13.3445 13.3296 13.8356 13.3296 14.4431C13.3296 14.5317 13.3397 14.6177 13.36 14.7013L13.3574 14.6937L14.2155 18.3412C14.0181 18.5791 13.8181 18.8196 13.6257 19.0576L9.87949 18.9259C9.86684 18.9259 9.85165 18.9259 9.83646 18.9259C9.23149 18.9259 8.74043 19.417 8.74043 20.022C8.74043 20.1865 8.77587 20.3434 8.84168 20.4852L8.83915 20.4776L10.3933 23.8821C10.2398 24.1555 10.0913 24.4322 9.94784 24.7124L6.25981 25.3123C5.73584 25.4034 5.34349 25.854 5.34349 26.3982C5.34349 26.6361 5.41943 26.8589 5.54853 27.0386L5.54599 27.036L7.73046 30.0685C7.63596 30.3689 7.54399 30.6701 7.45456 30.9721L3.95384 32.2808C3.53618 32.4428 3.24509 32.8427 3.24509 33.311C3.24509 33.6249 3.37671 33.9084 3.58681 34.1109L6.32562 36.6624C6.29018 36.9712 6.26065 37.2809 6.23703 37.5914L3.05018 39.5632C2.73378 39.7581 2.52368 40.1024 2.52368 40.4947C2.52368 40.8871 2.73124 41.2338 3.04512 41.4237L3.05018 41.4262L6.23703 43.3981C6.26234 43.7094 6.29524 44.0182 6.32562 44.327L3.58681 46.8836C3.37165 47.0835 3.23749 47.3696 3.23749 47.686C3.23749 48.1543 3.53112 48.5542 3.94371 48.7111L3.95131 48.7137L7.45203 50.0223C7.53809 50.3261 7.63174 50.6273 7.72793 50.926L5.54346 53.9584C5.41184 54.1356 5.33337 54.3609 5.33337 54.6014C5.33337 55.1456 5.73331 55.5987 6.25474 55.6797H6.25981L9.94784 56.2796C10.0921 56.558 10.2389 56.8339 10.3933 57.1098L8.83915 60.5144C8.77587 60.6485 8.74043 60.8055 8.74043 60.97C8.74043 61.575 9.23149 62.066 9.83646 62.066C9.85165 62.066 9.86684 62.066 9.87949 62.066H9.87696L13.6207 61.9344C13.8156 62.1774 14.0105 62.4179 14.213 62.6558L13.3549 66.3059C13.3372 66.3818 13.3271 66.4679 13.3271 66.5565C13.3271 67.1614 13.8181 67.6525 14.4231 67.6525C14.5142 67.6525 14.6003 67.6424 14.6838 67.6221L14.6762 67.6246L18.3237 66.7666C18.5617 66.9691 18.8022 67.164 19.0452 67.3563L18.9135 71.1026C18.9135 71.1178 18.9135 71.133 18.9135 71.1507C18.9135 71.7531 19.4021 72.2391 20.002 72.2391C20.169 72.2391 20.3285 72.2011 20.4702 72.1328L20.4627 72.1353L23.8672 70.5862C24.1431 70.7406 24.419 70.8874 24.6974 71.0317L25.2999 74.7197C25.391 75.2437 25.8416 75.6386 26.3858 75.6386C26.6237 75.6386 26.8439 75.5626 27.0262 75.4336L27.0236 75.4361L30.0561 73.2516C30.3565 73.3478 30.6577 73.4398 30.9597 73.5275L32.2684 77.0282C32.4253 77.451 32.8253 77.7446 33.2936 77.7446C33.61 77.7446 33.896 77.6104 34.096 77.3927L36.6525 74.6539C36.9588 74.6894 37.2702 74.7172 37.5815 74.7476L39.5533 77.9344C39.7508 78.2458 40.095 78.4508 40.4848 78.4508C40.8747 78.4508 41.2189 78.2458 41.4138 77.937L41.4163 77.9319L43.3882 74.745C43.6995 74.7172 44.0083 74.6868 44.3172 74.6514L46.8687 77.3902C47.0686 77.6028 47.3547 77.7345 47.6685 77.7345C48.1343 77.7345 48.5342 77.4434 48.6962 77.0333L48.6987 77.0257L50.0074 73.525C50.3095 73.4389 50.6107 73.347 50.9111 73.2491L53.9435 75.4336C54.1207 75.5652 54.346 75.6436 54.5864 75.6436C55.1307 75.6436 55.5837 75.2437 55.6647 74.7223V74.7172L56.2672 71.0292C56.5456 70.8849 56.8215 70.7355 57.0974 70.5837L60.502 72.1328C60.6336 72.1936 60.7905 72.229 60.9551 72.229C61.5626 72.229 62.0536 71.7379 62.0536 71.1304C62.0536 71.1178 62.0536 71.1076 62.0536 71.095L61.922 67.3513C62.165 67.1606 62.4038 66.964 62.6383 66.7615L66.2859 67.6196C66.3618 67.6373 66.4479 67.6474 66.5339 67.6474C67.1414 67.6474 67.6325 67.1564 67.6325 66.5489C67.6325 66.4603 67.6224 66.3767 67.6021 66.2957L67.6047 66.3033L66.7466 62.6533C66.944 62.4153 67.144 62.1774 67.3363 61.9319L71.0826 62.0635C71.0978 62.0635 71.1155 62.0635 71.1332 62.0635C71.7356 62.0635 72.2216 61.575 72.2216 60.9751C72.2216 60.808 72.1837 60.6485 72.1153 60.5068L72.1179 60.5144L70.5687 57.1098C70.7181 56.8339 70.87 56.558 71.0142 56.2796L74.7023 55.6797C75.2262 55.5886 75.6186 55.1355 75.6186 54.5938C75.6186 54.3558 75.5426 54.1331 75.4136 53.9534L75.4161 53.9559L73.2316 50.9235L73.5075 50.0198L77.0082 48.7111C77.4284 48.5517 77.7221 48.1517 77.7221 47.6835C77.7221 47.3671 77.5879 47.081 77.3727 46.8811L74.6339 44.3245C74.6668 44.0182 74.6972 43.7069 74.7225 43.3955L77.9094 41.4237C78.2258 41.2288 78.4359 40.8845 78.4359 40.4922C78.4359 40.0998 78.2283 39.7556 77.9144 39.5632L77.9094 39.5607H77.9347Z" fill="#301751"/>
</svg>
