<svg width="25" height="25" viewBox="0 0 25 25" fill="none" xmlns="http://www.w3.org/2000/svg">
<g clip-path="url(#clip0_160_4)">
<path fill-rule="evenodd" clip-rule="evenodd" d="M20.6683 2.99077L22.4624 4.78503C22.9346 5.25725 22.9346 6.02976 22.4624 6.50198L21.0177 7.9467C21.4162 8.69094 21.7204 9.49316 21.9139 10.3377H23.7854C24.4533 10.3377 24.9998 10.8842 24.9998 11.5519V14.0892C24.9998 14.7571 24.4533 15.3036 23.7854 15.3036H21.743C21.4925 16.1302 21.1342 16.9101 20.6842 17.6266L22.0091 18.9511C22.4813 19.4237 22.4813 20.1963 22.0091 20.6683L20.215 22.4625C19.7428 22.9345 18.9701 22.9345 18.4981 22.4625L17.0532 21.0176C16.3092 21.4164 15.5068 21.7207 14.6621 21.914V23.7856C14.6621 24.4533 14.1158 24.9998 13.4479 24.9998H10.9108C10.2429 24.9998 9.69645 24.4533 9.69645 23.7856V21.7431C8.86983 21.4925 8.09001 21.1342 7.37366 20.6841L6.04899 22.009C5.57638 22.4812 4.80387 22.4812 4.33166 22.009L2.53764 20.215C2.06543 19.7428 2.06543 18.9702 2.53764 18.498L3.98254 17.0531C3.58378 16.3091 3.27942 15.5068 3.08634 14.6623H1.21419C0.546468 14.6623 0 14.116 0 13.4481V10.9108C0 10.2429 0.546468 9.69661 1.21419 9.69661H3.25663C3.50728 8.86998 3.86556 8.09014 4.31539 7.37357L2.99072 6.04909C2.51851 5.57667 2.51851 4.80395 2.99072 4.33194L4.78495 2.53768C5.25716 2.06546 6.02966 2.06546 6.50187 2.53768L7.94657 3.98241C8.6908 3.58364 9.493 3.27927 10.3377 3.08599V1.21442C10.3377 0.546477 10.8842 0 11.5519 0H14.0892C14.7569 0 15.3033 0.546477 15.3033 1.21442V3.25628C16.1302 3.50673 16.9102 3.86501 17.6272 4.31505L18.951 2.99077C19.4236 2.51855 20.1961 2.51855 20.6683 2.99077ZM12.5 7.51152C15.2547 7.51152 17.4884 9.74544 17.4884 12.5C17.4884 15.2544 15.2547 17.4885 12.5 17.4885C9.74548 17.4885 7.5116 15.2546 7.5116 12.5C7.5116 9.74544 9.74548 7.51152 12.5 7.51152Z" fill="black"/>
</g>
<defs>
<clipPath id="clip0_160_4">
<rect width="25" height="25" fill="white"/>
</clipPath>
</defs>
</svg>
