<svg width="28" height="28" viewBox="0 0 28 28" fill="none" xmlns="http://www.w3.org/2000/svg">
<path opacity="0.5" d="M13.2002 23.3945C13.2002 22.5097 12.6185 21.73 11.7705 21.4775C11.2533 21.3237 10.7582 21.1164 10.291 20.8633C9.56134 20.4679 8.66929 20.567 8.04492 21.0967L7.92383 21.208L6.64648 22.4854C6.41783 22.714 6.23722 22.8919 6.08008 23.042L5.51465 22.4854C5.28549 22.2562 5.10637 22.0764 4.95605 21.9189C5.10627 21.7617 5.28575 21.5824 5.51465 21.3535L6.79199 20.0762C7.41788 19.4502 7.55852 18.4872 7.13672 17.709C6.8837 17.2421 6.67649 16.7471 6.52246 16.2295C6.27004 15.3815 5.49028 14.7998 4.60547 14.7998H2.7998C2.47599 14.7998 2.22234 14.7989 2.00488 14.7939C1.99991 14.5767 2 14.3233 2 14C2 13.6762 1.99989 13.4225 2.00488 13.2051C2.22233 13.2001 2.476 13.2002 2.7998 13.2002H4.60547C5.49027 13.2002 6.27003 12.6185 6.52246 11.7705C6.67654 11.2529 6.88366 10.757 7.13672 10.29C7.55808 9.51191 7.41769 8.54961 6.79199 7.92383L5.51465 6.64648C5.28578 6.41761 5.10722 6.23732 4.95703 6.08008C5.10715 5.92293 5.28597 5.74333 5.51465 5.51465C5.74332 5.28598 5.92293 5.10714 6.08008 4.95703C6.23732 5.10722 6.41761 5.28578 6.64648 5.51465L7.92383 6.79199C8.54973 7.41783 9.51279 7.55839 10.291 7.13672C10.758 6.88371 11.253 6.67649 11.7705 6.52246C12.6185 6.27003 13.2002 5.49028 13.2002 4.60547V2.7998C13.2002 2.476 13.2001 2.22233 13.2051 2.00488C13.4225 1.99989 13.6762 2 14 2C14.3233 2 14.5767 1.99991 14.7939 2.00488C14.7989 2.22234 14.7998 2.47599 14.7998 2.7998V4.60547C14.7998 5.49028 15.3815 6.27004 16.2295 6.52246C16.7471 6.67649 17.2421 6.8837 17.709 7.13672C18.4872 7.55852 19.4502 7.41788 20.0762 6.79199L21.3545 5.51465C21.5834 5.28571 21.7627 5.10626 21.9199 4.95605L22.4854 5.51465C22.7138 5.74303 22.892 5.92309 23.042 6.08008L22.4854 6.64648L21.208 7.92383C20.5821 8.54973 20.4416 9.51277 20.8633 10.291C21.1164 10.7582 21.3237 11.2533 21.4775 11.7705C21.73 12.6185 22.5097 13.2002 23.3945 13.2002H25.2002C25.5235 13.2002 25.7769 13.2001 25.9941 13.2051C25.9991 13.4225 26 13.6762 26 14C26 14.3233 25.9991 14.5767 25.9941 14.7939C25.7769 14.7989 25.5235 14.7998 25.2002 14.7998H23.3945C22.5648 14.7998 21.827 15.3112 21.5303 16.0742L21.4775 16.2295C21.3237 16.7467 21.1164 17.2419 20.8633 17.709C20.4416 18.4872 20.5821 19.4503 21.208 20.0762L22.4854 21.3535C22.714 21.5822 22.8929 21.7618 23.043 21.9189L22.4854 22.4854C22.2567 22.714 22.0771 22.8929 21.9199 23.043C21.7628 22.8929 21.5832 22.714 21.3545 22.4854L20.0762 21.208C19.4894 20.6213 18.6067 20.4612 17.8574 20.791L17.71 20.8633C17.2425 21.1165 16.7467 21.3236 16.2295 21.4775C15.3815 21.73 14.7998 22.5097 14.7998 23.3945V25.2002C14.7998 25.5235 14.7989 25.7769 14.7939 25.9941C14.5767 25.9991 14.3233 26 14 26C13.6762 26 13.4225 25.9991 13.2051 25.9941C13.2001 25.7769 13.2002 25.5235 13.2002 25.2002V23.3945Z" stroke="white" stroke-width="4" stroke-linecap="round" stroke-linejoin="round"/>
<path d="M14 12.5C14.8284 12.5 15.5 13.1716 15.5 14C15.5 14.8284 14.8284 15.5 14 15.5C13.1716 15.5 12.5 14.8284 12.5 14C12.5 13.1716 13.1716 12.5 14 12.5Z" stroke="white" stroke-width="3" stroke-linecap="round" stroke-linejoin="round"/>
</svg>
