<svg width="81" height="81" viewBox="0 0 81 81" fill="none" xmlns="http://www.w3.org/2000/svg">
<path d="M52.9523 7.29337C49.9689 4.63368 46.3566 5.70131 42.7899 8.8667C42.2601 9.33766 41.733 9.85939 41.2085 10.4159C35.1105 16.8859 29.4487 28.8705 27.688 38.0242C28.373 39.4129 28.9082 41.1869 29.2614 42.5408C29.3523 42.8887 29.4326 43.2151 29.4995 43.4907C29.6547 44.1463 29.7376 44.5744 29.7376 44.5744C29.7376 44.5744 29.6844 44.3683 29.4594 43.7155C29.4165 43.5897 29.3684 43.4533 29.3122 43.2927C29.2879 43.2258 29.256 43.1455 29.2185 43.0599C28.8198 42.1341 27.7201 40.1835 27.2358 39.3326C26.8211 40.5555 26.4545 41.698 26.1494 42.7335C27.5488 45.2915 28.3997 49.677 28.3997 49.677C28.3997 49.677 28.3248 49.3934 27.9743 48.4007C27.6612 47.5231 26.1093 44.8018 25.7401 44.165C25.1113 46.4902 24.8597 48.0582 25.0872 48.4408C25.526 49.182 25.9434 50.4584 26.31 51.8711C27.1368 55.0526 27.7121 58.9271 27.7121 58.9271C27.7121 58.9271 27.7306 59.1839 27.763 59.5799C27.6479 62.253 27.7173 65.0224 27.9235 67.5269C28.1991 70.8421 28.7129 73.6891 29.3711 75.2142L29.8179 74.9707C28.852 71.9686 28.4587 68.0325 28.6299 63.4945C28.8895 56.5563 30.4869 48.192 33.4355 39.4718C38.4204 26.3098 45.3345 15.7487 51.66 10.7049C45.8938 15.9146 38.086 32.7744 35.75 39.0169C33.1332 46.0086 31.2789 52.5695 30.1631 58.8548C32.0923 52.9628 38.3241 50.4289 38.3241 50.4289C38.3241 50.4289 41.3825 46.6588 44.9546 41.2725C42.814 41.7595 39.3007 42.597 38.1234 43.092C36.3869 43.8198 35.9186 44.0687 35.9186 44.0687C35.9186 44.0687 41.543 40.6437 46.3674 39.0918C53.0032 28.6404 60.233 13.79 52.9523 7.29337Z" fill="black"/>
</svg>
