<svg width="68" height="68" viewBox="0 0 68 68" fill="none" xmlns="http://www.w3.org/2000/svg">
<path fill-rule="evenodd" clip-rule="evenodd" d="M33.75 6.75C18.8383 6.75 6.75 18.8383 6.75 33.75C6.75 48.6618 18.8383 60.75 33.75 60.75C48.6618 60.75 60.75 48.6618 60.75 33.75C60.75 18.8383 48.6618 6.75 33.75 6.75ZM0 33.75C0 15.1104 15.1104 0 33.75 0C52.3894 0 67.5 15.1104 67.5 33.75C67.5 52.3894 52.3894 67.5 33.75 67.5C15.1104 67.5 0 52.3894 0 33.75ZM33.1708 16.0561C35.0349 16.0561 36.5458 17.5671 36.5458 19.4311V36.1952L48.4491 40.7204C50.1917 41.3826 51.0671 43.332 50.4046 45.0741C49.7424 46.8166 47.793 47.6921 46.0509 47.0296L31.9717 41.6779C30.6619 41.1797 29.7958 39.9242 29.7958 38.5229V19.4311C29.7958 17.5671 31.3068 16.0561 33.1708 16.0561Z" fill="#C499FF"/>
</svg>
