<svg width="38" height="38" viewBox="0 0 38 38" fill="none" xmlns="http://www.w3.org/2000/svg">
<path opacity="0.5" d="M36.4166 19.0002C36.4166 28.6191 28.6188 36.4168 18.9999 36.4168C9.38096 36.4168 1.58325 28.6191 1.58325 19.0002C1.58325 9.38121 9.38096 1.5835 18.9999 1.5835C28.6188 1.5835 36.4166 9.38121 36.4166 19.0002ZM4.76073 19.0002C4.76073 26.8643 11.1358 33.2394 18.9999 33.2394C26.864 33.2394 33.2392 26.8643 33.2392 19.0002C33.2392 11.1361 26.864 4.76098 18.9999 4.76098C11.1358 4.76098 4.76073 11.1361 4.76073 19.0002Z" fill="white"/>
<path d="M18.9998 7.91699C18.1254 7.91699 17.4165 8.62587 17.4165 9.50033V19.7393C17.4165 19.7393 17.4165 20.152 17.6171 20.4625C17.7514 20.7258 17.9607 20.9546 18.2357 21.1134L25.5504 25.3367C26.3077 25.7738 27.2761 25.5143 27.7132 24.757C28.1504 23.9997 27.891 23.0313 27.1337 22.5942L20.5832 18.8122V9.50033C20.5832 8.62588 19.8743 7.91699 18.9998 7.91699Z" fill="white"/>
</svg>
