<svg width="48" height="45" viewBox="0 0 48 45" fill="none" xmlns="http://www.w3.org/2000/svg">
<path d="M18 18.75C22.4183 18.75 26 15.3921 26 11.25C26 7.10786 22.4183 3.75 18 3.75C13.5817 3.75 10 7.10786 10 11.25C10 15.3921 13.5817 18.75 18 18.75Z" stroke="white" stroke-width="4"/>
<path opacity="0.5" d="M30 16.875C33.3138 16.875 36 14.3566 36 11.25C36 8.14341 33.3138 5.625 30 5.625" stroke="white" stroke-width="4" stroke-linecap="round"/>
<path d="M18 39.375C25.732 39.375 32 36.0171 32 31.875C32 27.7329 25.732 24.375 18 24.375C10.268 24.375 4 27.7329 4 31.875C4 36.0171 10.268 39.375 18 39.375Z" stroke="white" stroke-width="4"/>
<path opacity="0.5" d="M36 26.25C39.5084 26.9713 42 28.7979 42 30.9375C42 32.8674 39.9726 34.5429 37 35.382" stroke="white" stroke-width="4" stroke-linecap="round"/>
</svg>
