<svg width="81" height="81" viewBox="0 0 81 81" fill="none" xmlns="http://www.w3.org/2000/svg">
<g clip-path="url(#clip0_588_9)">
<path d="M39.555 62.1672C41.2947 62.1672 42.705 60.7569 42.705 59.0172C42.705 57.2775 41.2947 55.8672 39.555 55.8672C37.8153 55.8672 36.405 57.2775 36.405 59.0172C36.405 60.7569 37.8153 62.1672 39.555 62.1672Z" fill="#FFC400"/>
<path d="M55.5751 29.2498C55.3633 27.6511 54.8219 26.1137 53.9854 24.735C53.1488 23.3562 52.0353 22.1661 50.7151 21.2398C48.8581 19.968 46.7584 19.0936 44.5475 18.6716C42.3367 18.2495 40.0625 18.2889 37.8676 18.7873C33.9264 19.4809 30.2037 21.0918 27.0001 23.4898C26.7696 23.676 26.5781 23.9057 26.4364 24.1659C26.2947 24.426 26.2056 24.7116 26.1743 25.0062C26.111 25.6011 26.2866 26.1969 26.6626 26.6623C27.0385 27.1278 27.584 27.4248 28.1789 27.4881C28.7739 27.5514 29.3696 27.3758 29.8351 26.9998C32.4481 25.0366 35.4839 23.7113 38.7001 23.1298C40.2909 22.7493 41.9431 22.7008 43.5535 22.9872C45.164 23.2737 46.6981 23.889 48.0601 24.7948C48.8788 25.3623 49.5713 26.093 50.0941 26.941C50.6168 27.7889 50.9585 28.7359 51.0976 29.7223C51.8401 35.7748 43.9201 38.1598 39.1276 39.0373L37.2826 39.3748V49.1848C37.2826 49.7816 37.5196 50.3538 37.9416 50.7758C38.3636 51.1978 38.9358 51.4348 39.5326 51.4348C40.1293 51.4348 40.7016 51.1978 41.1236 50.7758C41.5455 50.3538 41.7826 49.7816 41.7826 49.1848V43.1323C55.3726 40.0273 55.9801 32.4223 55.5751 29.2498Z" fill="#FFC400"/>
</g>
<defs>
<clipPath id="clip0_588_9">
<rect width="81" height="81" fill="white"/>
</clipPath>
</defs>
</svg>
