<svg width="78" height="78" viewBox="0 0 78 78" fill="none" xmlns="http://www.w3.org/2000/svg">
<path d="M38.6041 52.3108C25.8593 52.3665 15.2077 61.2638 12.4664 73.186L12.431 73.3683C12.3854 73.5708 12.3576 73.8037 12.3576 74.0416C12.3576 75.7882 13.7751 77.2057 15.5216 77.2057C17.0303 77.2057 18.2933 76.1476 18.6097 74.7352L18.6148 74.7149C20.7031 65.4556 28.8588 58.6415 38.6041 58.6415C48.3494 58.6415 56.5076 65.4556 58.5681 74.5807L58.5934 74.7174C58.9148 76.1501 60.1754 77.2031 61.684 77.2031C63.4306 77.2031 64.8481 75.7882 64.8481 74.0391C64.8481 73.7986 64.8203 73.5657 64.7696 73.3404L64.7747 73.3607C61.9954 61.2613 51.3464 52.364 38.6092 52.3108H38.6041ZM21.3005 26.2035C28.5348 26.2035 34.4022 20.3386 34.4022 13.1018C34.4022 5.86491 28.5373 0 21.3005 0C14.0662 0 8.19872 5.86491 8.19872 13.1018C8.20884 20.3335 14.0712 26.1934 21.3005 26.2035ZM21.3005 6.32812C25.0417 6.32812 28.0741 9.36056 28.0741 13.1018C28.0741 16.8429 25.0417 19.8754 21.3005 19.8754C17.5593 19.8754 14.5268 16.8429 14.5268 13.1018C14.5319 9.36309 17.5618 6.33319 21.3005 6.32812ZM56.1355 26.2035C63.3698 26.2035 69.2373 20.3386 69.2373 13.1018C69.2373 5.86491 63.3724 0 56.1355 0C48.9012 0 43.0338 5.86491 43.0338 13.1018C43.0439 20.3335 48.9037 26.1934 56.133 26.2035H56.1355ZM56.1355 6.32812C59.8767 6.32812 62.9092 9.36056 62.9092 13.1018C62.9092 16.8429 59.8767 19.8754 56.1355 19.8754C52.3943 19.8754 49.3619 16.8429 49.3619 13.1018C49.367 9.36309 52.3969 6.33319 56.1355 6.32812ZM77.3601 48.0532C75.1731 37.6473 66.0707 29.9447 55.1686 29.9447C54.1688 29.9447 53.1841 30.0105 52.2197 30.1345L52.3336 30.1219C49.9795 24.7657 44.7221 21.0904 38.6041 21.0904C32.4937 21.0904 27.2388 24.7556 24.9176 30.0105L24.8797 30.1067C24.2063 30.0206 23.4115 29.9624 22.6066 29.9472H22.5838C11.6235 29.9953 2.46544 37.6447 0.103781 47.8938L0.0734062 48.0507C0.0278437 48.2532 0 48.4886 0 48.7291C0 50.4782 1.4175 51.8957 3.16659 51.8957C4.67522 51.8957 5.93578 50.8402 6.25472 49.4277L6.25978 49.4075C7.99116 41.8618 14.6357 36.3108 22.5813 36.2804C22.9458 36.2804 23.2976 36.331 23.6545 36.3538C23.7963 44.4994 30.4357 51.0477 38.6016 51.0477C46.7623 51.0477 53.3967 44.507 53.5486 36.3817V36.3665C53.9814 36.3336 54.4067 36.2779 54.8497 36.2779C62.7978 36.3083 69.4423 41.8568 71.156 49.2885L71.1787 49.4024C71.4977 50.8376 72.7608 51.8932 74.2694 51.8932C76.016 51.8932 77.4309 50.4782 77.4309 48.7316C77.4309 48.4937 77.4056 48.2608 77.355 48.0381L77.3601 48.0583V48.0532ZM38.6041 44.7171C38.6041 44.7171 38.6041 44.7171 38.6016 44.7171C33.8251 44.7171 29.9523 40.8442 29.9523 36.0678C29.9523 31.2913 33.8251 27.4185 38.6016 27.4185C43.378 27.4185 47.2508 31.2913 47.2508 36.0678C47.2508 36.0678 47.2508 36.0678 47.2508 36.0703C47.2432 40.8442 43.378 44.7095 38.6041 44.7171Z" fill="#C499FF"/>
</svg>
