<svg width="20" height="20" viewBox="0 0 20 20" fill="none" xmlns="http://www.w3.org/2000/svg">
<g clip-path="url(#clip0_299_168)">
<path opacity="0.5" d="M18.125 0H1.875C1.37772 0 0.900805 0.197544 0.549175 0.549175C0.197544 0.900805 0 1.37772 0 1.875L0 15.625C0 16.1223 0.197544 16.5992 0.549175 16.9508C0.900805 17.3025 1.37772 17.5 1.875 17.5H3.75C3.91576 17.5 4.07473 17.4342 4.19194 17.3169C4.30915 17.1997 4.375 17.0408 4.375 16.875C4.375 16.7092 4.30915 16.5503 4.19194 16.4331C4.07473 16.3158 3.91576 16.25 3.75 16.25H1.875C1.70924 16.25 1.55027 16.1842 1.43306 16.0669C1.31585 15.9497 1.25 15.7908 1.25 15.625V5H18.75V15.625C18.75 15.7908 18.6842 15.9497 18.5669 16.0669C18.4497 16.1842 18.2908 16.25 18.125 16.25H15.625C15.4592 16.25 15.3003 16.3158 15.1831 16.4331C15.0658 16.5503 15 16.7092 15 16.875C15 17.0408 15.0658 17.1997 15.1831 17.3169C15.3003 17.4342 15.4592 17.5 15.625 17.5H18.125C18.6223 17.5 19.0992 17.3025 19.4508 16.9508C19.8025 16.5992 20 16.1223 20 15.625V1.875C20 1.37772 19.8025 0.900805 19.4508 0.549175C19.0992 0.197544 18.6223 0 18.125 0ZM1.25 3.75V1.875C1.25 1.70924 1.31585 1.55027 1.43306 1.43306C1.55027 1.31585 1.70924 1.25 1.875 1.25H18.125C18.2908 1.25 18.4497 1.31585 18.5669 1.43306C18.6842 1.55027 18.75 1.70924 18.75 1.875V3.75H1.25Z" fill="#C499FF"/>
<path opacity="0.5" d="M16.875 7.5H15.625C15.4592 7.5 15.3003 7.43415 15.1831 7.31694C15.0658 7.19973 15 7.04076 15 6.875C15 6.70924 15.0658 6.55027 15.1831 6.43306C15.3003 6.31585 15.4592 6.25 15.625 6.25H16.875C17.0408 6.25 17.1997 6.31585 17.3169 6.43306C17.4342 6.55027 17.5 6.70924 17.5 6.875C17.5 7.04076 17.4342 7.19973 17.3169 7.31694C17.1997 7.43415 17.0408 7.5 16.875 7.5Z" fill="#C499FF"/>
<path opacity="0.5" d="M4.375 10H3.125C2.95924 10 2.80027 9.93415 2.68306 9.81694C2.56585 9.69973 2.5 9.54076 2.5 9.375C2.5 9.20924 2.56585 9.05027 2.68306 8.93306C2.80027 8.81585 2.95924 8.75 3.125 8.75H4.375C4.54076 8.75 4.69973 8.81585 4.81694 8.93306C4.93415 9.05027 5 9.20924 5 9.375C5 9.54076 4.93415 9.69973 4.81694 9.81694C4.69973 9.93415 4.54076 10 4.375 10Z" fill="#C499FF"/>
<path opacity="0.5" d="M4.375 7.5H3.125C2.95924 7.5 2.80027 7.43415 2.68306 7.31694C2.56585 7.19973 2.5 7.04076 2.5 6.875C2.5 6.70924 2.56585 6.55027 2.68306 6.43306C2.80027 6.31585 2.95924 6.25 3.125 6.25H4.375C4.54076 6.25 4.69973 6.31585 4.81694 6.43306C4.93415 6.55027 5 6.70924 5 6.875C5 7.04076 4.93415 7.19973 4.81694 7.31694C4.69973 7.43415 4.54076 7.5 4.375 7.5Z" fill="#C499FF"/>
<path d="M14.3751 14.0875C14.3734 13.3355 14.0739 12.6147 13.5422 12.0829C13.0104 11.5511 12.2896 11.2517 11.5376 11.25C11.1657 11.2492 10.7975 11.3222 10.4541 11.4649C10.1108 11.6076 9.79924 11.8171 9.53756 12.0813L6.45631 15.1625C6.06205 15.5593 5.79385 16.0637 5.68542 16.6125C5.57699 17.1612 5.63316 17.7297 5.84687 18.2467C6.06058 18.7636 6.4223 19.2058 6.88657 19.5177C7.35085 19.8297 7.89697 19.9975 8.45631 20C8.82812 20.0009 9.1964 19.9278 9.53974 19.7851C9.88308 19.6424 10.1946 19.4329 10.4563 19.1688L11.9938 17.6313L13.5313 16.0938C13.799 15.8328 14.0117 15.5208 14.1566 15.1762C14.3015 14.8316 14.3758 14.4614 14.3751 14.0875ZM9.58131 18.2875C9.43456 18.4346 9.26015 18.5512 9.06815 18.6305C8.87614 18.7099 8.67033 18.7505 8.46256 18.75C8.14968 18.7485 7.84422 18.6546 7.58454 18.4801C7.32486 18.3055 7.12254 18.0582 7.00301 17.769C6.88348 17.4799 6.85206 17.1618 6.91269 16.8549C6.97332 16.5479 7.12331 16.2657 7.34381 16.0438L8.44381 14.95L10.6813 17.1875L9.58131 18.2875ZM13.1251 14.0875C13.1234 14.5066 12.9573 14.9083 12.6626 15.2063L11.5626 16.3063L9.31881 14.0625L10.4188 12.9625C10.6412 12.7416 10.9239 12.5915 11.2315 12.5311C11.539 12.4707 11.8575 12.5026 12.1469 12.6229C12.4363 12.7432 12.6837 12.9465 12.8577 13.2071C13.0318 13.4678 13.1248 13.7741 13.1251 14.0875Z" fill="#C499FF"/>
</g>
<defs>
<clipPath id="clip0_299_168">
<rect width="20" height="20" fill="white"/>
</clipPath>
</defs>
</svg>
